<svg xmlns="http://www.w3.org/2000/svg" version="1.1" viewBox="0 0 244 120"><path d="m.00202 4.413h4.832s1.682 1e-5 1.682-1.713v-2.7h-6.514l2e-5 1e-4zm-2e-5 55.59v2.186c4.32 0 7.85 3.151 8.559 7.27.684-.4458 1.495-.7086 2.374-.7086 2.415 0 4.372 1.958 4.372 4.374 0 2.416-1.957 4.374-4.372 4.374-.3509 0-.6863-.0529-1.013-.1305-.9893 1.397-2.61 2.316-4.454 2.316-.3767 0-.739-.0567-1.092-.1347v2.215c.3569.0597.7172.1057 1.092.1057 2.092 0 3.982-.8411 5.362-2.2.0378.002.0673.0144.1053.0144 3.622 0 6.559-2.936 6.559-6.56 0-3.622-2.937-6.56-6.559-6.56-.3014 0-.5857.0469-.8751.087-1.667-3.909-5.542-6.649-10.06-6.649zm34.98 12.16c-1.025 0-1.879.6955-2.147 1.637-.3272-.4438-.85-.7355-1.443-.7355-.9913 0-1.794.8054-1.794 1.8 0 .995.8024 1.8 1.794 1.8.7514 0 1.392-.4641 1.659-1.121.3886.6667 1.103 1.121 1.93 1.121s1.539-.4542 1.928-1.121c.2677.6567.9081 1.121 1.659 1.121.9912 0 1.796-.8054 1.796-1.8 0-.995-.8044-1.8-1.796-1.8-.5928 0-1.114.2917-1.441.7355-.2677-.9413-1.122-1.637-2.147-1.637zm-34.98 18.46 6.559-6.558h-4.374v-10.94h-2.186zm-.002 26.94h2.031v2.285h-2.029v.1596h6.514v-5.302c0-1.715-1.682-1.716-1.682-1.716l-4.832.00056zm36.33-117.6-2.229 5.283 5.201-5.283zm28.83 0c-.02646.1857-.04535.3745-.04535.5677v2.952c0 1.455.7929 2.711 1.957 3.394v6.456h7.816v4.925h7.816v-4.925h7.818v-6.456c1.164-.6826 1.955-1.939 1.955-3.394v-2.952c0-.1933-.0189-.382-.04535-.5677h-2.002c.05443.1809.0929.3689.0929.5677v2.952h-1.957v7.879h-3.909v-1.531c1.164-.6826 1.957-1.937 1.957-3.392v-4.927c0-.5528-.119-1.075-.3261-1.55h-2.394c.4615.3595.7637.9163.7637 1.55v4.927c0 1.089-.874 1.97-1.953 1.97v-3.941h-1.955v11.82h-3.907v-11.82h-1.955v3.941c-1.08 0-1.955-.8818-1.955-1.97v-4.927c0-.6335.3018-1.19.7637-1.55h-2.392c-.2071.4746-.3261.997-.3261 1.55v4.927c0 1.455.7929 2.709 1.955 3.392v1.531h-3.907v-7.879h-1.955v-2.952c0-.1987.03704-.3869.09086-.5677zm71.01 0v10.47c-1.18.6846-1.984 1.948-1.984 3.41 0 2.189 1.774 3.964 3.963 3.964 2.187 0 3.963-1.774 3.963-3.964 0-1.463-.8018-2.726-1.981-3.41v-10.47zm1.979 11.9c1.094 0 1.981.8841 1.981 1.979s-.8871 1.983-1.981 1.983c-1.094 0-1.979-.8882-1.979-1.983s.885-1.979 1.979-1.979zm9.891-11.9.0144.0144v-.0144zm3.975 0v10.47c-1.178.6846-1.979 1.948-1.979 3.41 0 2.189 1.774 3.964 3.963 3.964s3.961-1.774 3.961-3.964c0-1.463-.8018-2.726-1.981-3.41v-10.47zm1.984 11.9c1.092 0 1.979.8841 1.979 1.979s-.887 1.983-1.979 1.983c-1.096 0-1.984-.8882-1.984-1.983s.8872-1.979 1.984-1.979zm-45.37.5387v.4496h.8958v-.4496zm1.346 0v.4496h.8958v-.4496zm1.344.002v.4496h1.794v-.4496zm2.242 0v.4496h1.348v-.4496zm-4.933.8992v.4496h1.794v-.4496zm2.244 0v.4496h2.689v-.4496zm3.137 0v.4496h1.348v-.4496zm-5.381.8992v.4496h1.346v-.4496zm80.74-14.24c-7e-5.0204-.002.0401-.002.0605 0 9.324 7.531 16.89 16.82 16.89 9.29 0 16.82-7.562 16.82-16.89 0-.0204-.002-.0401-.002-.0605h-3.88c9e-5.0204.002.0401.002.0605 0 7.172-5.794 12.99-12.94 12.99-7.145 0-12.94-5.816-12.94-12.99 0-.0204.002-.0401.002-.0605zm45.45 0v2.7c0 1.678 1.684 1.713 1.684 1.713h2.242v3.429l3.362-3.429h1.897v-4.413h-.2127v2.128h-2.244v-2.128zm-59.8 4.336-1.346 1.353 2.691 2.7 1.344-1.351zm-1.794 1.803-8.074 8.103.0106 2.71 2.681-.008 8.072-8.105zm-66.39.4496v12.61h10.76v-9.906l-2.689-2.702zm87.71-6.589c-.00081.0189-.006.037-.006.0559 0 .7164.5805 1.297 1.294 1.297.7157 0 1.294-.5805 1.294-1.297 0-.0189-.005-.037-.006-.0559zm8 0c-.5418.7468-.8648 1.663-.8648 2.658 0 2.5 2.018 4.525 4.508 4.525 2.49 0 4.51-2.025 4.51-4.525 0-.3463-.0461-.6784-.1197-1.003.4012-.4687.9602-1.131 1.408-1.655zm12.7 0c-.00083.0189-.006.037-.006.0559 0 .7164.5783 1.297 1.292 1.297.7157 0 1.296-.5805 1.296-1.297 0-.0189-.005-.037-.006-.0559zm-107.5 7.49h6.489l2.483 2.476v8.331h-8.972zm.8978.8992v.4496h1.794v-.4496zm.002.9013v.4496h2.689v-.4496zm-.002 1.351v.4516h1.346v-.4516zm1.794 0v.4516h1.794v-.4516zm2.244 0v.4516h2.691v-.4516zm-4.035.9013v.4496h2.241v-.4496zm2.689 0v.4496h2.689v-.4496zm3.139 0v.4496h1.348v-.4496zm51.58 2.7h.8998v.9013h.8958v.8992h-1.796zm-55.62.002v.4496h1.794v-.4496zm2.244 0v.4496h3.141v-.4496zm-4.035.8992v.4496h2.241v-.4496zm2.689 0v.4496h2.689v-.4496zm3.139 0v.4496h.45v-.4496zm-84.18.008c-3.073 0-3.04 3.021-3.04 3.021v8.06c0 3.053 3.04 3.021 3.04 3.021h8.112l5.069 5.037v-5.037h1.013s3.04-.0295 3.04-3.021v-8.06c0-3.021-3.04-3.021-3.04-3.021zm78.35.8909v.4496h.8958v-.4496zm1.346 0v.4496h.8958v-.4496zm3.585 0v.4496h1.796v-.4496zm-2.242.002v.4496h1.794v-.4496zm-2.689.8992v.4496h1.794v-.4496zm2.241 0v.4496h2.689v-.4496zm3.137 0v.4496h1.796v-.4496zm-95.89 4.252s-3.042-.00012-3.042 3.021v8.06c0 2.959 3.042 3.023 3.042 3.023h1.013v5.037l5.071-5.037h8.109s3.04 6e-5 3.04-3.023v-1.007h-5.069c-5.101 0-5.069-5.037-5.069-5.037v-5.037zm193 .2403-13.77 14.85 13.77 14.85 3.932-4.243-9.833-10.61 9.833-10.6zm13.7 0-3.934 4.243 9.833 10.6-9.833 10.61 3.934 4.243 13.77-14.85zm-105.1 4.494c-1.025 0-1.881.6934-2.149 1.635-.3251-.4438-.8499-.7355-1.441-.7355-.9912 0-1.794.8054-1.794 1.8s.8024 1.8 1.794 1.8h-.8978c-.9893 0-1.794.8075-1.794 1.803v1.351c0 .6647.3625 1.237.8978 1.55v2.952h3.589v2.25h3.587v-2.25h3.587v-2.952c.5353-.3124.8978-.8851.8978-1.55v-1.351c0-.9951-.8024-1.803-1.794-1.803h-.8978c.9893 0 1.794-.8054 1.794-1.8s-.8044-1.8-1.794-1.8c-.5928 0-1.116.2917-1.441.7355-.2677-.9413-1.122-1.635-2.147-1.635zm24.6 0c-1.277 0-1.278 1.26-1.278 1.26v26.48s-.0385 1.262 1.278 1.262h14.04l-3.833-4.316c-.4976-.4896-.774-1.147-.774-1.844.002-.6966.2786-1.35.7781-1.842l2.151-2.126c.9992-.9851 2.73-.9831 3.728-.002l2.679 2.646 5.486-5.128v-15.13s-.0802-1.26-1.278-1.26zm6.384 5.043h14.04v2.521h-14.04zm-3.831.002h2.553v2.521h-2.553zm0 3.783h2.553v2.522h-2.553zm3.831 0h14.04v2.522h-14.04zm-70.05.6775c-.4619 0-.4623.4703-.4623.4703h4.161s-.01436-.4703-.4623-.4703zm6.935 0c-.4619 0-.4603.4703-.4603.4703h4.163s-.01436-.4703-.4623-.4703zm-6.978.9427c-.4199.028-.419.4703-.419.4703h4.161s-.01436-.4703-.4623-.4703h-3.236c-.01436 0-.03024-.00089-.04309 0zm6.937 0c-.42.028-.419.4703-.419.4703h4.163s-.01436-.4703-.4623-.4703h-3.24c-.01436 0-.02721-.00089-.04157 0zm-6.894.9406c-.4619 0-.4623.4724-.4623.4724h4.161s-.01436-.4724-.4623-.4724zm6.935 0c-.4619 0-.4603.4724-.4603.4724h4.163s-.01436-.4724-.4623-.4724zm-6.935.9427c-.4619 0-.4623.4703-.4623.4703h4.161s-.01436-.4703-.4623-.4703zm6.935 0c-.4619 0-.4603.4703-.4603.4703h4.163s-.01436-.4703-.4623-.4703zm59.28.2797h2.553v2.519l-2.632.0537zm3.831 0h8.937v2.519h-8.937zm-70.09.663c-.4199.028-.419.4703-.419.4703h4.161s-.01436-.4703-.4623-.4703h-3.236c-.01436 0-.03024-.00088-.04309 0zm6.937 0c-.42.028-.419.4703-.419.4703h4.163s-.01436-.4703-.4623-.4703h-3.24c-.01436 0-.02721-.00088-.04157 0zm85.81 1.071c-.1847-.00026-.369.0711-.5098.2114l-9.761 9.638-4.031-3.98c-.2835-.2806-.7382-.2806-1.022 0l-2.155 2.128c-.2815.2766-.2815.7283 0 1.007l5.319 5.254 1.377 1.361c.2855.2786.7402.2786 1.022 0l2.153-2.13 10.27-10.14c.2835-.2786.2835-.7264 0-1.007l-2.155-2.128c-.1398-.1393-.3253-.2111-.5098-.2114zm-53.64-13.44c.7395 0 1.34.6025 1.34 1.347 0 .7423-.6 1.347-1.34 1.347-.7415 0-1.342-.6044-1.342-1.347 0-.7443.6001-1.347 1.342-1.347zm-3.589.8971c.4956 0 .8978.4017.8978.8992 0 .4975-.4022.8992-.8978.8992-.4956 0-.8978-.4017-.8978-.8992s.4022-.8992.8978-.8992zm1.659 1.581c.3886.6667 1.103 1.119 1.93 1.119.8247 0 1.539-.4521 1.93-1.119.2593.6362.8684 1.091 1.589 1.119h-1.278c-.452 0-.8592.1751-1.174.4516h-2.136c-.3152-.2766-.7224-.4516-1.174-.4516h-1.276c.7192-.028 1.33-.4826 1.589-1.119zm5.517-1.581c.4956 0 .8978.4017.8978.8992 0 .4975-.4022.8992-.8978.8992-.4976 0-.8978-.4017-.8978-.8992s.4002-.8992.8978-.8992zm-8.074 3.601h1.517c-.3767.3304-.6192.8096-.6192 1.351v2.25c0 .6647.3645 1.239.8978 1.552v.7003h-1.796v-3.601h-.8958v-1.351c0-.4975.4002-.9013.8958-.9013zm2.694.4516h3.587c.4956 0 .8958.4017.8958.8992v2.25c0 .4975-.4002.9013-.8958.9013v-1.8h-.8978v5.404h-1.794v-5.404h-.8958v1.8c-.4956 0-.8978-.4037-.8978-.9013v-2.25c0-.4975.4022-.8992.8978-.8992zm-33.11.8267c-4.193 0-6.477.4703-6.477.4703v9.421s1.836-.4724 6.477-.4724c0 .4717.4623.4724.4623.4724h.9247s.4623.0136.4623-.4724c4.334 0 6.475.4724 6.475.4724v-9.421s-2.298-.4703-6.475-.4703c-.8961 0-.9267.9427-.9267.9427s.0011-.9427-.9226-.9427zm37.87-1.278h1.515c.4956 0 .8958.4037.8958.9013v1.351h-.8958v3.601h-1.796v-.7003c.5352-.3125.8978-.8872.8978-1.552v-2.25c0-.5413-.2424-1.021-.6171-1.351zm-38.6 2.221c.08602-9e-4.173 0 .26 0 .8961 0 .9267.4703.9267.4703v7.065s.01285-.4703-.9267-.4703c-2.789 0-5.088.4703-5.088.4703v-7.065s2.162-.4427 4.828-.4703zm2.952 0c.02721-9e-4.05594 0 .08466 0 2.781 0 5.088.4703 5.088.4703v7.065s-1.864-.4703-5.088-.4703c-.8961 0-.9247.4703-.9247.4703v-7.065s.000128-.4427.84-.4703zm-6.39.9427c-.4619 0-.4623.4703-.4623.4703h4.161s-.01436-.4703-.4623-.4703zm6.935 0c-.4619 0-.4603.4703-.4603.4703h4.163s-.01436-.4703-.4623-.4703zm-42.77 5.841c-.8961 0-.8958.9013-.8958.9013v9.906h12.56v-8.105c0-.9294-.8958-.9013-.8958-.9013h-4.485c-1.197 0-.8978-.8992-.8978-.8992 0-.9015-.8958-.9013-.8958-.9013zm148.6 6.752-4.442 4.56h1.975l-1.482 3.547 4.442-4.56h-1.975zm-132 12.01s-3.604.00021-3.604 3.584v16.73c0 3.584 3.604 3.584 3.604 3.584h14.42l7.21 7.169v-7.169h4.805s3.604-.0759 3.604-3.584v-16.73c0-3.584-3.604-3.584-3.604-3.584zm182.5.9013c-4.516 0-8.388 2.74-10.06 6.649-.2894-.0401-.5758-.087-.8751-.087-3.624 0-6.559 2.938-6.559 6.56 0 3.624 2.935 6.56 6.559 6.56.7018 0 1.361-.1454 1.992-.3563 1.168 1.292 2.765 2.157 4.566 2.422v-2.227c-1.703-.3522-3.126-1.46-3.845-3-.7474.599-1.681.9759-2.712.9759-2.417 0-4.374-1.958-4.374-4.374 0-2.416 1.957-4.374 4.374-4.374.8604 0 1.658.258 2.336.6879.7137-4.114 4.279-7.25 8.594-7.25zm-171.7 3.879h4.805v4.778h4.807v4.782h-4.807v4.778h-4.805v-4.778h-4.805v-4.782h4.805zm35.37 2.422s-.8958-.0144-.8958.9013v10.81c.002.1353.0476.8992.8958.8992h1.794v1.8l1.348-1.351 1.344 1.351v-1.8h4.487c.9358 0 .8958-.8992.8958-.8992v-10.81c-.0219-.9015-.8958-.9013-.8958-.9013zm57.13.5221c-1.156 3.095-.439 5.388-.2229 5.957-1.356 1.572-2.186 3.576-2.186 6.033 0 9.256 5.603 11.35 13.42 11.35 7.821 0 13.48-2.096 13.48-11.35 0-2.458-.8298-4.461-2.188-6.033.2181-.5692.933-2.862-.2209-5.957 0 0-1.77-.6006-5.777 2.331-3.584-.8742-7.223-.5973-10.54 0-1.748-1.371-3.666-2.196-5.777-2.331zm42.85 6.234-8.477 8.609h3.769l-2.828 6.698 8.477-8.611h-3.767zm-36.77 4.525c1.457-.0174 3.154.2465 4.962.2465 3.404 0 6.405-.9325 8.178.8288 1.063 1.057 1.682 2.331 1.682 3.7 0 5.728-4.414 6.004-9.86 6.004-5.446 0-9.864-.2769-9.864-6.004 0-1.369.6236-2.644 1.686-3.7.8308-.8256 1.93-1.06 3.216-1.075zm-61.42-10.38h7.179v8.116h-7.179zm.8999.9033v.8992h.8958v-.8991zm0 1.8v.9013h.8958v-.9013zm0 1.8v.9013h.8958v-.9013zm-71.77 4.954h-1.346c-.452 0-.8592.173-1.174.4496h-2.134c-.3152-.2767-.7224-.4496-1.174-.4496h-2.244c-.9912 0-1.794.8054-1.794 1.8v1.353c0 .6647.3625 1.237.8958 1.55v2.95h3.589v2.252h3.587v-2.252h3.589v-2.95c.5333-.3124.8958-.8851.8958-1.55v-1.353c0-.995-.8024-1.8-1.794-1.8zm-8.072.8992h1.515c-.3747.3324-.6192.8096-.6192 1.351v2.252c0 .6647.3625 1.239.8978 1.552v.6982h-1.794v-3.599h-.8978v-1.353c0-.4975.4022-.9013.8978-.9013zm7.455 0h1.515c.4956 0 .8978.4037.8978.9013v1.353h-.8978v3.599h-1.796v-.6982c.5353-.3124.8978-.8872.8978-1.552v-2.252c0-.5413-.2424-1.019-.6171-1.351zm-2.97-4.498c.7415 0 1.34.6045 1.34 1.349 0 .7443-.5981 1.347-1.34 1.347s-1.34-.6025-1.34-1.347c0-.7443.5981-1.349 1.34-1.349zm206.8.062v10.94h-4.374l6.559 6.558v-17.49zm-131.5.3833v.9013h.8958v-.9013zm-78.94.4538c.4956 0 .8978.4017.8978.8992s-.4022.8992-.8978.8992c-.4956 0-.8958-.4017-.8958-.8992 0-.4975.4002-.8992.8958-.8992zm7.177 0c.4956 0 .8978.4017.8978.8992s-.4022.8992-.8978.8992c-.4956 0-.8978-.4017-.8978-.8992 0-.4975.4022-.8992.8978-.8992zm99.06 1.798v.6174h5.247l1.8 1.684v6.365h.6419v-6.808l-1.924-1.858zm-29.99.4516h8.972v1.349c0 .4517-.4499.4517-.4499.4517s-2.213.004-4.037.004v-.8971h-2.691v.8971c-.3648 0-.8957-.004-1.346-.004-.448 0-.4479-.4517-.4479-.4517zm28.71.7853v8.669h7.686v-6.81l-1.92-1.858zm.6419.6216h4.603l1.802 1.682v5.745h-6.405zm-103.8.3937h3.587c.4956 0 .8958.4017.8958.8992v2.252c0 .4975-.4002.9013-.8958.9013v-1.8h-.8978v5.401h-1.792v-5.401h-.8978v1.8c-.4956 0-.8978-.4037-.8978-.9013v-2.252c0-.4975.4022-.8992.8978-.8992zm106.4.5325v1.239h-1.282v1.237h1.282v1.241h1.282v-1.241h1.282v-1.237h-1.282v-1.239zm31.33 1.245c-.7434 0-1.344 1.006-1.344 2.25 0 1.244.6002 2.252 1.344 2.252.7415 0 1.344-1.008 1.344-2.252 0-1.244-.6022-2.25-1.344-2.25zm9.839 0c-.7434 0-1.344 1.006-1.344 2.25 0 1.244.6002 2.252 1.344 2.252.7415 0 1.344-1.008 1.344-2.252 0-1.244-.6022-2.25-1.344-2.25zm-42.45 3.091v1.237h3.845v-1.237zm37.53.9862c-.4956 0-.8978.2029-.8978.4516 0 .2507.4022.4538.8978.4538.4937 0 .8958-.203.8958-.4538 0-.2488-.4021-.4516-.8958-.4516zm1.327 1.968c-.1962.6388-.7239 1.069-1.313 1.069-.5888 0-1.116-.4303-1.315-1.069-.1704-.313-.6258-.0741-.4644.1884.2677.8637.9822 1.446 1.779 1.446.795 0 1.509-.5825 1.775-1.446.1336-.3964-.3298-.5341-.4623-.1884zm-117.1 6.773-10.5 10.89h4.665l-3.498 8.47 10.5-10.89h-4.665zm49.99 10.48c-.6423.0438-.3473.72-.0453 1.098-1.003.4159-1.346 1.662-1.346 1.662.988 1.767 1.978 2.042 4.078 1.873 0 0 .7048-1.062.3777-2.091.5174-.0401.9124-.264.9144-.5366-.483-.7858-1.053-.3811-1.715-.4786-.3-.2618-.6748-.315-1.003-.4683-.1642-.6331-.7649-1.048-1.261-1.059zm96.13.0953c-9.268 0-16.78 7.526-16.82 16.82h3.882c.0325-7.146 5.81-12.93 12.94-12.93 2.663 0 5.137.8089 7.195 2.192l3.203-2.459c-2.863-2.267-6.469-3.63-10.4-3.63zm-100.3 2.468c-.0866.002-.1618.028-.2188.0788-.23.203-.0885.7399.3179 1.2.2002.2289.4295.3951.6357.4807-.358.389-.5193.8609-.7474 1.239-.0912-.0295-.1857-.059-.2848-.0808-.7256-.1671-1.389-.0559-1.48.2445-.0932.3025.4219.6843 1.148.8495.0953.0219.1875.0378.2807.0521-.1209.5752-.1541 1.145-.0867 1.678-.1883.01-.399.0529-.6151.1326-.5908.221-.98.64-.871.9386.111.2965.6786.3576 1.269.1367.1744-.0658.3274-.1488.4582-.2383.9565 1.952 2.296 1.978 4.052 1.831.0159.1671.0544.3474.1218.5325.22.593.6396.9858.935.8743.2954-.1094.3584-.6812.1382-1.274-.0853-.2308-.2033-.4289-.3281-.5802.446-.2985.8504-.6989 1.203-1.169.0773.0718.1606.1436.2518.2114.6007.4418 1.225.5836 1.391.3149.1685-.2667-.1856-.8408-.7843-1.285-.0953-.0695-.1896-.1287-.2828-.1844.2497-.4291.3134-.972.4417-1.378.2022.1135.4922.1866.8173.1906.6106.006 1.109-.2384 1.112-.5449.004-.3064-.4916-.5617-1.104-.5677-.2855-.002-.5447.0491-.7409.1368.008-.2786.00023-.5517-.0393-.8163-.5313.1453-1.478.2917-2.543-.068l-1.876 4.117c-.4995.849-1.119.2336-.8174-.373l1.876-4.119c-.9694-.5731-1.479-1.388-1.715-1.885-.2161.1374-.4229.3015-.6192.4786-.0673-.195-.189-.4102-.3674-.6112-.3034-.3448-.6693-.5482-.9288-.5428zm100.3 2.72c-.7137 0-1.292.5807-1.292 1.299 0 .7184.5783 1.299 1.292 1.299.7157 0 1.296-.5806 1.296-1.299 0-.7184-.5805-1.299-1.296-1.299zm-83.53-14.86s-1.767 1e-5-1.767 1.512v4.034c0 1.497 1.767 1.512 1.767 1.512h.5882v2.521l2.945-2.521h4.708s1.767.0159 1.767-1.512v-4.034s.0174-1.512-1.767-1.512zm-103.4 2.248-5.542 5.855 5.542 5.855 1.581-1.674-3.957-4.181 3.957-4.183zm5.515 0-1.581 1.672 3.957 4.183-3.957 4.181 1.581 1.674 5.542-5.855zm109.1.777v2.521s.0189 2.521-2.943 2.521h-2.941v.5034c0 1.514 1.763 1.515 1.763 1.515h4.712l2.941 2.519v-2.519h.5882s1.767-.0317 1.767-1.515v-4.034c0-1.512-1.767-1.512-1.767-1.512zm37.24 3.276-4.44 4.56h1.975l-1.482 3.547 4.442-4.56h-1.975zm48.04 20.19h3.88c-.009-2.523-.5818-4.909-1.579-7.055l-2.78 3.649c.3002 1.088.473 2.226.4789 3.406zm15.69 0h6.729v-.1596h-2.244v-2.285h2.244v-2.285h2.244v2.285h.2126v-4.573h-7.501s-1.684 6e-5-1.684 1.716zm8.972 0h.2126v-.1596h-.2126zm-207.5 0h2.972l3.276-3.327h-3.767l2.824-6.698-8.477 8.611h3.769zm28.85 0h1.99c.242-.8103.9798-1.403 1.864-1.403h3.302c-.4369.3846-.7879.8624-1.024 1.403h2.39c.3308-.2586.7414-.4185 1.193-.4185h7.816c.4507 0 .8605.1599 1.191.4185h2.392c-.2358-.5402-.5868-1.018-1.024-1.403h3.302c.8824 0 1.623.5922 1.866 1.403h1.988c-.2747-1.906-1.887-3.373-3.853-3.373h-4.883c-.9853 0-1.873.3792-2.561.9842h-4.65c-.688-.605-1.576-.9842-2.561-.9842h-4.883c-1.967 0-3.579 1.467-3.853 3.373zm71 0h3.961v-2.517c1.18-.6866 1.981-1.948 1.981-3.41 0-2.189-1.776-3.964-3.963-3.964-2.189 0-3.963 1.774-3.963 3.964 0 1.463.8039 2.726 1.984 3.41zm1.979-7.908c1.094 0 1.981.8862 1.981 1.981 0 1.093-.8871 1.979-1.981 1.979-1.094 0-1.979-.8861-1.979-1.979 0-1.095.885-1.981 1.979-1.981zm58.97 1.467c-.7137 0-1.294.5827-1.294 1.301 0 .7164.5805 1.297 1.294 1.297.7137 0 1.294-.5806 1.294-1.297 0-.7184-.5805-1.301-1.294-1.301zm-49.08 6.442h.0144v-3.949h1.981c1.749 0 1.979 1.983 1.979 1.983v1.966h3.963v-1.966c0-5.958-5.942-5.942-5.942-5.942h-1.981v-3.961l-5.942 5.942zm0 0c.003-.004.01 0 .0144 0zm-77.06-3.373c1.638 0 3.033-1.014 3.616-2.451.8485 1.459 2.402 2.451 4.2 2.451 1.8 0 3.354-.9923 4.202-2.451.5829 1.437 1.979 2.451 3.616 2.451 2.157 0 3.909-1.764 3.909-3.941 0-2.175-1.752-3.939-3.909-3.939-1.293 0-2.428.6387-3.139 1.612-.5829-2.062-2.445-3.582-4.679-3.582-2.232 0-4.094 1.521-4.677 3.582-.7118-.9732-1.849-1.612-3.139-1.612-2.159 0-3.907 1.763-3.907 3.939 0 2.177 1.748 3.941 3.907 3.941zm7.816-7.871c1.614 0 2.923 1.318 2.923 2.946 0 1.626-1.309 2.946-2.923 2.946-1.614 0-2.923-1.32-2.923-2.946 0-1.628 1.309-2.946 2.923-2.946zm122.2.9075c-.7157 0-1.294.5807-1.294 1.299 0 .7164.5784 1.299 1.294 1.299.7137 0 1.294-.5826 1.294-1.299 0-.7184-.5805-1.299-1.294-1.299zm10.35 0c-.7157 0-1.294.5807-1.294 1.299 0 .7164.5784 1.299 1.294 1.299.7137 0 1.294-.5826 1.294-1.299 0-.7184-.5805-1.299-1.294-1.299zm-140.4 1.055c1.08 0 1.955.8817 1.955 1.968 0 1.089-.8741 1.97-1.955 1.97-1.078 0-1.953-.8818-1.953-1.97 0-1.087.8741-1.968 1.953-1.968zm15.63 0c1.078 0 1.953.8817 1.953 1.968 0 1.089-.8741 1.97-1.953 1.97-1.08 0-1.957-.8818-1.957-1.97 0-1.087.8762-1.968 1.957-1.968zm131.2 9.282c-.0287-.6909-.5928-1.245-1.29-1.245-.6953 0-1.257.5543-1.286 1.245zm-5.839 0c3.229-3.782 7.333-8.623 9.73-11.63.6712-.8411.3317-1.652-.3591-1.676-.2703-.01-.595.1026-.9329.3792-3.444 2.816-9.396 7.9-13.22 11.18-.3271-.0757-.6646-.1264-1.015-.1264-1.498 0-2.815.7409-3.635 1.869zm-14.86 0c-.0287-.6909-.5907-1.245-1.288-1.245-.6953 0-1.259.5543-1.288 1.245z" fill="#fff"/></svg>
